<svg id="Layer_1" data-name="Layer 1" xmlns="http://www.w3.org/2000/svg" viewBox="0 0 511.06 590.57"><defs><style>.cls-1{fill:#fff;}.cls-2{fill:#c6bbd0;}.cls-3,.cls-4,.cls-5,.cls-6,.cls-7{fill:none;stroke:#c6bbd0;}.cls-3{stroke-miterlimit:10;}.cls-3,.cls-7{stroke-width:4.25px;}.cls-4,.cls-5,.cls-6,.cls-7{stroke-linejoin:round;}.cls-4,.cls-5,.cls-6{stroke-width:2.83px;}.cls-4{stroke-dasharray:14.17;}.cls-6{stroke-dasharray:14.08 14.08;}</style></defs><title>astro</title><path class="cls-1" d="M255.09,259.32c-23.73,0-43,18.84-43,42s19.31,42,43,42,43-18.83,43-42S278.82,259.32,255.09,259.32Zm0,80.33c-21.66,0-39.29-17.2-39.29-38.34S233.43,263,255.09,263s39.29,17.2,39.29,38.33S276.76,339.65,255.09,339.65Z"/><path class="cls-2" d="M384.1,289.24c-8.13,3.91-16.51,7.54-24.9,10.8-6.55-5.55-13.27-10.73-20-15.45,8.63-7.36,17.08-15.22,25.11-23.44a1.8,1.8,0,0,0-.06-2.59,1.92,1.92,0,0,0-2.65.06c-8.16,8.36-16.75,16.35-25.54,23.79a226.71,226.71,0,0,0-21.28-12.85c7.11-11.89,14.22-21.78,21.33-33.67a1.8,1.8,0,0,0-.68-2.5,1.9,1.9,0,0,0-2.56.65c-7.13,11.94-14.27,21.87-21.41,33.81a159.89,159.89,0,0,0-23.63-9.73c3.59-14.79,7.18-24.58,10.76-39.38a1.83,1.83,0,0,0-1.39-2.2,1.89,1.89,0,0,0-2.26,1.36c-3.56,14.73-7.13,24.44-10.7,39.15a102.49,102.49,0,0,0-23.41-3.93c-.43-18.07-.35-27.36.25-45.39a1.84,1.84,0,0,0-1.81-1.88,1.89,1.89,0,0,0-1.94,1.76c-.59,18-.67,27.34-.25,45.42a123.24,123.24,0,0,0-26.3,2.93l-10.63-38.85a1.86,1.86,0,0,0-2.25-1.36,1.83,1.83,0,0,0-1.4,2.2l10.63,38.86a149.26,149.26,0,0,0-24.55,8.49l-20.36-32.05a1.9,1.9,0,0,0-2.56-.66,1.8,1.8,0,0,0-.67,2.5l20.18,31.77a172.86,172.86,0,0,0-22.45,12.77c-8-6.9-15.82-14.22-23.22-21.8a1.91,1.91,0,0,0-2.65-.06,1.79,1.79,0,0,0-.07,2.58c7.29,7.45,14.95,14.65,22.81,21.46a181.59,181.59,0,0,0-20.21,16.45c-7.63-3-15.16-6.33-22.4-9.82a1.9,1.9,0,0,0-2.51.83,1.81,1.81,0,0,0,.85,2.45c6.85,3.3,14,6.42,21.16,9.33l-.86.83a1.8,1.8,0,0,0,0,2.57c28.64,28.09,68.67,44.14,110,44.14H261c29.61-.26,67.71-17.4,99.44-44.75a1.65,1.65,0,0,0,.4-.51c8.39-3.27,16.76-6.89,24.89-10.8a1.82,1.82,0,0,0,.85-2.45A1.89,1.89,0,0,0,384.1,289.24ZM261,344.93c-40.18.39-79.23-14.86-107.4-41.79l1.49-1.43a178.18,178.18,0,0,1,22.53-18.26,168.08,168.08,0,0,1,25-14.15,145.24,145.24,0,0,1,27.15-9.37h.06A119.2,119.2,0,0,1,258,256.68l1,0a98.47,98.47,0,0,1,26.11,4.39,155,155,0,0,1,26.25,10.8,223.8,223.8,0,0,1,23.82,14.33c7.14,4.91,14.27,10.36,21.26,16.25C325.63,328.45,289.25,344.68,261,344.93Z"/><circle class="cls-3" cx="255.53" cy="196.63" r="194.5"/><circle class="cls-4" cx="255.53" cy="393.94" r="194.5"/><polyline class="cls-5" points="259.07 8.26 255.53 2.13 251.99 8.26"/><line class="cls-6" x1="244.95" y1="20.45" x2="9.19" y2="428.8"/><polyline class="cls-5" points="5.67 434.9 2.13 441.04 9.21 441.04"/><line class="cls-6" x1="23.29" y1="441.04" x2="494.81" y2="441.04"/><polyline class="cls-5" points="501.85 441.04 508.94 441.04 505.39 434.9"/><line class="cls-6" x1="498.36" y1="422.71" x2="262.59" y2="14.36"/><polygon class="cls-7" points="255.53 588.44 508.94 149.53 2.13 149.53 255.53 588.44"/><ellipse class="cls-1" cx="170.28" cy="149.53" rx="8.8" ry="8.59"/><ellipse class="cls-1" cx="340.78" cy="150.02" rx="8.8" ry="8.59"/><ellipse class="cls-1" cx="170.28" cy="440.35" rx="8.8" ry="8.59"/><ellipse class="cls-1" cx="340.78" cy="440.84" rx="8.8" ry="8.59"/><ellipse class="cls-1" cx="425.78" cy="294.42" rx="8.8" ry="8.59"/><ellipse class="cls-1" cx="84.78" cy="294.42" rx="8.8" ry="8.59"/><circle class="cls-2" cx="255.28" cy="301.14" r="25"/></svg>